<?xml version="1.0" encoding="utf-8"?>
<!-- Generator: Adobe Illustrator 27.0.0, SVG Export Plug-In . SVG Version: 6.00 Build 0)  -->
<svg version="1.1" id="图层_1" xmlns="http://www.w3.org/2000/svg" xmlns:xlink="http://www.w3.org/1999/xlink" x="0px" y="0px"
	 viewBox="0 0 300 300" style="enable-background:new 0 0 300 300;" xml:space="preserve">
<style type="text/css">
	.st0{opacity:0.8;fill:#004EA2;}
	.st1{opacity:0.4;fill:#004EA2;}
	.st2{opacity:0.6;fill:#004EA2;}
	.st3{fill:#004EA2;}
	.st4{opacity:0.5;fill:#004EA2;}
	.st5{opacity:0.9;fill:#004EA2;}
	.st6{opacity:0.3;fill:#004EA2;}
	.st7{opacity:0.7;fill:#004EA2;}
</style>
<path class="st0" d="M225,150c0,6.9,5.6,12.5,12.5,12.5c0,0,0,0,0,0h50c6.9,0,12.5-5.6,12.5-12.5s-5.6-12.5-12.5-12.5h-50
	C230.6,137.5,225,143.1,225,150L225,150z"/>
<path class="st1" d="M0,150c0,6.9,5.6,12.5,12.5,12.5c0,0,0,0,0,0h50c6.9,0,12.5-5.6,12.5-12.5s-5.6-12.5-12.5-12.5h-50
	C5.6,137.5,0,143.1,0,150z"/>
<path class="st2" d="M150,225c-6.9,0-12.5,5.6-12.5,12.5l0,0v50c0,6.9,5.6,12.5,12.5,12.5s12.5-5.6,12.5-12.5v-50
	C162.5,230.6,156.9,225,150,225C150,225,150,225,150,225L150,225z"/>
<path class="st3" d="M137.5,12.5v50c0,6.9,5.6,12.5,12.5,12.5s12.5-5.6,12.5-12.5v-50C162.5,5.6,156.9,0,150,0S137.5,5.6,137.5,12.5
	z"/>
<path class="st4" d="M43.9,238.4c-4.9,4.9-4.9,12.8,0,17.7c4.9,4.9,12.8,4.9,17.7,0L97,220.7c4.9-4.9,4.9-12.8,0-17.7
	c-4.9-4.9-12.8-4.9-17.7,0L43.9,238.4z"/>
<path class="st5" d="M203,79.3c-4.9,4.9-4.9,12.8,0,17.7c4.9,4.9,12.8,4.9,17.7,0l35.3-35.4c4.9-4.9,4.9-12.8,0-17.7
	c-4.9-4.9-12.8-4.9-17.7,0C238.4,43.9,203,79.3,203,79.3z"/>
<path class="st6" d="M97,79.3L61.6,43.9c-4.9-4.9-12.8-4.9-17.7,0s-4.9,12.8,0,17.7l0,0L79.3,97c4.9,4.9,12.8,4.9,17.7,0
	C101.8,92.1,101.8,84.2,97,79.3z"/>
<path class="st7" d="M203,220.7l35.3,35.3c4.9,4.9,12.8,4.9,17.7,0c4.9-4.9,4.9-12.8,0-17.7L220.7,203c-4.9-4.9-12.8-4.9-17.7,0
	C198.2,207.9,198.2,215.8,203,220.7z"/>
</svg>
